<svg fill="#C2BCD3" width="76px" height="23px" viewBox="0 0 1000 300" xmlns="http://www.w3.org/2000/svg">
<path fill-rule="evenodd" d="M620.38 235.67c-58.11 42.83-142.34 65.68-214.86 65.68-101.69 0-193.23-37.6-262.48-100.16-5.44-4.92-.57-11.62 5.96-7.79 74.74 43.49 167.15 69.65 262.61 69.65 64.38 0 135.2-13.32 200.33-40.96 9.83-4.18 18.06 6.44 8.44 13.58"></path>
<path fill-rule="evenodd" d="M644.54 208.03c-7.4-9.5-49.1-4.49-67.82-2.27-5.7.7-6.57-4.26-1.44-7.83 33.22-23.38 87.72-16.63 94.07-8.8 6.36 7.88-1.65 62.51-32.86 88.59-4.8 4-9.36 1.87-7.23-3.44 7-17.5 22.72-56.72 15.28-66.25"></path>
<path fill-rule="evenodd" d="M578.03 32.9V10.2a5.6 5.6 0 0 1 5.74-5.75H685.5c3.27 0 5.88 2.35 5.88 5.75v19.45c-.05 3.27-2.79 7.53-7.66 14.28L631 119.18c19.59-.48 40.27 2.44 58.03 12.45 4 2.27 5.09 5.57 5.4 8.84v24.25c0 3.3-3.66 7.18-7.5 5.18-31.3-16.42-72.86-18.2-107.47.17-3.52 1.91-7.22-1.92-7.22-5.22v-23.03c0-3.7.04-10.01 3.74-15.63l61.07-87.58H583.9c-3.26 0-5.87-2.3-5.87-5.7M206.94 174.68h-30.95a5.85 5.85 0 0 1-5.53-5.26V10.58c0-3.18 2.66-5.7 5.96-5.7h28.86c3 .13 5.4 2.43 5.62 5.3v20.77h.57C219 10.88 233.14 1.52 252.2 1.52c19.37 0 31.47 9.36 40.18 29.43 7.48-20.07 24.5-29.43 42.74-29.43 12.97 0 27.16 5.36 35.83 17.37 9.8 13.37 7.79 32.78 7.79 49.8l-.04 100.25a5.85 5.85 0 0 1-5.97 5.74h-30.9a5.88 5.88 0 0 1-5.58-5.74V84.75c0-6.7.61-23.42-.87-29.77-2.3-10.67-9.22-13.67-18.2-13.67-7.48 0-15.31 5-18.5 13.01-3.17 8.01-2.86 21.42-2.86 30.43v84.19a5.85 5.85 0 0 1-5.97 5.74h-30.9a5.85 5.85 0 0 1-5.58-5.74l-.04-84.19c0-17.71 2.92-43.79-19.06-43.79-22.25 0-21.38 25.42-21.38 43.8v84.18a5.85 5.85 0 0 1-5.96 5.74M778.96 1.52c45.92 0 70.78 39.44 70.78 89.59 0 48.45-27.47 86.88-70.78 86.88-45.1 0-69.65-39.44-69.65-88.58 0-49.45 24.86-87.89 69.65-87.89m.26 32.43c-22.81 0-24.25 31.08-24.25 50.45 0 19.42-.3 60.86 23.99 60.86 23.98 0 25.11-33.43 25.11-53.8 0-13.41-.56-29.43-4.61-42.14-3.48-11.06-10.4-15.37-20.24-15.37M909.28 174.68h-30.81a5.88 5.88 0 0 1-5.58-5.74l-.04-158.88a5.85 5.85 0 0 1 5.96-5.18h28.69a5.92 5.92 0 0 1 5.53 4.44V33.6h.56c8.67-21.72 20.81-32.08 42.18-32.08 13.89 0 27.43 5.01 36.13 18.72 8.1 12.71 8.1 34.08 8.1 49.45v99.99a5.95 5.95 0 0 1-5.96 5H963c-2.83-.21-5.18-2.3-5.48-5V83.4c0-17.37 2-42.79-19.38-42.79-7.53 0-14.45 5.05-17.89 12.71-4.35 9.71-4.91 19.37-4.91 30.08v85.54a5.95 5.95 0 0 1-6.06 5.74M496.93 98.81c0 12.06.3 22.11-5.79 32.82-4.92 8.7-12.75 14.06-21.41 14.06-11.89 0-18.85-9.05-18.85-22.41 0-26.38 23.63-31.17 46.05-31.17v6.7m31.21 75.44a6.46 6.46 0 0 1-7.31.74c-10.27-8.53-12.15-12.5-17.76-20.63-16.98 17.32-29.04 22.5-51.02 22.5-26.07 0-46.31-16.06-46.31-48.23 0-25.12 13.58-42.22 33-50.58 16.8-7.4 40.26-8.7 58.2-10.75v-4c0-7.36.56-16.07-3.8-22.43-3.74-5.7-10.97-8.05-17.36-8.05-11.8 0-22.3 6.05-24.86 18.59-.52 2.78-2.57 5.53-5.4 5.66l-29.99-3.22c-2.52-.57-5.35-2.62-4.61-6.49C417.79 10.97 450.7 0 480.12 0c15.07 0 34.75 4 46.63 15.41 15.06 14.06 13.62 32.82 13.62 53.24v48.23c0 14.5 6.01 20.85 11.67 28.68 1.96 2.79 2.4 6.14-.13 8.23a1313.36 1313.36 0 0 0-23.72 20.55l-.05-.1M91.2 98.81c0 12.06.3 22.11-5.8 32.82-4.91 8.7-12.7 14.06-21.41 14.06-11.89 0-18.8-9.05-18.8-22.41 0-26.38 23.63-31.17 46-31.17v6.7m31.21 75.44a6.46 6.46 0 0 1-7.3.74c-10.28-8.53-12.11-12.5-17.77-20.63-16.97 17.32-28.99 22.5-51.01 22.5C20.28 176.86 0 160.8 0 128.63c0-25.12 13.62-42.22 33-50.58 16.8-7.4 40.26-8.7 58.2-10.75v-4c0-7.36.56-16.07-3.75-22.43-3.79-5.7-11.01-8.05-17.37-8.05-11.8 0-22.33 6.05-24.9 18.59-.52 2.78-2.56 5.53-5.35 5.66L9.79 53.85c-2.52-.57-5.3-2.62-4.61-6.49C12.1 10.97 44.97 0 74.39 0c15.06 0 34.74 4 46.62 15.41 15.06 14.06 13.63 32.82 13.63 53.24v48.23c0 14.5 6 20.85 11.66 28.68 2 2.79 2.44 6.14-.08 8.23a1313.5 1313.5 0 0 0-23.73 20.55l-.09-.1" style=""></path>
</svg>