<svg xmlns="http://www.w3.org/2000/svg" viewBox="0 0 20 20" width="16px" height="16px">
  <path d="M9.97 13.395a3.37 3.37 0 1 1 .001-6.741 3.37 3.37 0 0 1 0 6.74m7.3-4.915a48.16 48.16 0 0 0-.926-.127c-.037-.005-.071-.03-.081-.065a6.553 6.553 0 0 0-.615-1.48.09.09 0 0 1 .007-.1c.19-.247.377-.497.558-.74a.844.844 0 0 0-.083-1.091L15.12 3.863a.842.842 0 0 0-1.09-.081c-.245.18-.494.368-.741.557a.092.092 0 0 1-.1.01 6.415 6.415 0 0 0-1.481-.614.09.09 0 0 1-.064-.078c-.04-.308-.084-.63-.13-.93a.856.856 0 0 0-.828-.729h-1.43a.856.856 0 0 0-.83.728c-.044.3-.088.615-.128.925-.005.036-.03.07-.064.08a6.53 6.53 0 0 0-1.481.615.091.091 0 0 1-.1-.008 53.22 53.22 0 0 0-.74-.558.843.843 0 0 0-1.091.083L3.81 4.875a.843.843 0 0 0-.082 1.091c.18.244.369.494.558.74.023.03.026.07.009.1a6.504 6.504 0 0 0-.614 1.481.09.09 0 0 1-.077.064c-.308.04-.604.083-.905.128a.833.833 0 0 0-.7.83v1.43c0 .412.294.768.7.83.3.044.604.088.912.128.037.006.064.03.073.065.142.515.348 1.013.612 1.48a.09.09 0 0 1-.01.1c-.19.246-.377.495-.558.74a.843.843 0 0 0 .082 1.09l1.01 1.012a.844.844 0 0 0 1.092.082c.245-.18.493-.367.74-.558a.09.09 0 0 1 .1-.008c.466.264.964.47 1.48.614a.09.09 0 0 1 .065.076c.04.31.084.607.129.907a.833.833 0 0 0 .829.703h1.43a.833.833 0 0 0 .829-.703c.045-.3.089-.604.129-.913a.088.088 0 0 1 .064-.073 6.544 6.544 0 0 0 1.48-.613.09.09 0 0 1 .1.01c.248.19.497.377.742.559a.84.84 0 0 0 1.089-.084l1.012-1.01a.844.844 0 0 0 .082-1.091c-.18-.245-.37-.494-.558-.74a.088.088 0 0 1-.008-.1c.264-.467.47-.965.613-1.48a.09.09 0 0 1 .077-.065c.308-.04.633-.083.934-.128a.858.858 0 0 0 .729-.83V9.31a.859.859 0 0 0-.73-.83" fill="#C2BCD3" fill-rule="evenodd"/>
</svg>
